<?xml version="1.0" encoding="UTF-8"?>
<svg xmlns="http://www.w3.org/2000/svg" width="256" height="256" viewBox="0 0 256 256">
<defs><linearGradient id="bg" x1="0" y1="0" x2="0" y2="1"><stop offset="0%" stop-color="#3b161c"/><stop offset="100%" stop-color="#0a1e1b"/></linearGradient><radialGradient id="visor" cx="0.5" cy="0.5" r="0.5"><stop offset="0%" stop-color="#f0ab4b"/><stop offset="100%" stop-color="#e23653"/></radialGradient></defs>
<rect width="256.0" height="256.0" fill="url(#bg)"/>
<circle cx="128.0" cy="128.0" r="117.76" fill="none" stroke="#f0ab4b" stroke-width="1.5" opacity="0.35" stroke-dasharray="6 10"/>
<circle cx="128.0" cy="128.0" r="133.12" fill="none" stroke="#e23653" stroke-width="1" opacity="0.25"/>
<path d="M0 256.0 L30.72 199.68 L87.04 220.16 L112.64 256.0 Z" fill="#3b161c" stroke="#e23653" stroke-width="2"/>
<path d="M256.0 256.0 L225.28 199.68 L168.96 220.16 L143.36 256.0 Z" fill="#3b161c" stroke="#e23653" stroke-width="2"/>
<ellipse cx="128.0" cy="107.52" rx="56.32" ry="66.56" fill="#15181d" stroke="#e23653" stroke-width="2"/>
<rect x="87.03999999999999" y="92.16" width="81.92" height="23.04" rx="7.68" fill="url(#visor)"/>
<rect x="99.84" y="96.0" width="17.92" height="11.52" rx="2" fill="#0a0c10"/>
<rect x="138.24" y="96.0" width="17.92" height="11.52" rx="2" fill="#0a0c10"/>
<line x1="107.52" y1="148.48" x2="148.48" y2="148.48" stroke="#f0ab4b" stroke-width="2" opacity="0.7"/>
<line x1="128.0" y1="158.72" x2="128.0" y2="194.56" stroke="#f0ab4b" stroke-width="3" opacity="0.8"/>
<circle cx="220.16" cy="46.08" r="40.0" fill="#f0ab4b" fill-opacity="0.5"/><circle cx="236.16" cy="30.08" r="28.0" fill="#f0ab4b" fill-opacity="0.5"/>
<rect x="20.48" y="230.4" width="215.04" height="15.36" rx="3" fill="#e23653" opacity="0.85"/>
<text x="128.0" y="243.712" text-anchor="middle" font-size="14.08" fill="#ffffff" font-family="sans-serif" font-weight="bold">Voltix · VANGUARD</text>
</svg>
